<svg width="32" height="32" viewBox="0 0 32 32" fill="none" xmlns="http://www.w3.org/2000/svg">
<g clip-path="url(#clip0_62_814)">
<path d="M2.66667 7.33333V5.324C2.66911 4.97384 2.8092 4.63869 3.05668 4.39096C3.30417 4.14322 3.63917 4.00279 3.98933 4H28.0107C28.7413 4 29.3333 4.59333 29.3333 5.324V26.676C29.3309 27.0262 29.1908 27.3613 28.9433 27.609C28.6958 27.8568 28.3608 27.9972 28.0107 28H3.98933C3.63842 27.9996 3.302 27.86 3.05399 27.6117C2.80598 27.3635 2.66667 27.0269 2.66667 26.676V25.3333H26.6667V9.73333L16 19.3333L2.66667 7.33333ZM0 13.3333H6.66667V16H0V13.3333ZM0 20H10.6667V22.6667H0V20Z" fill="#F9FAFC"/>
</g>
<defs>
<clipPath id="clip0_62_814">
<rect width="32" height="32" fill="white"/>
</clipPath>
</defs>
</svg>
