<svg width="74" height="74" viewBox="0 0 74 74" fill="none" xmlns="http://www.w3.org/2000/svg">
<circle cx="37" cy="37" r="37" fill="#F9FAFC"/>
<path d="M26.1663 21.8334V15.3334C26.1663 14.7588 26.3946 14.2077 26.8009 13.8013C27.2073 13.395 27.7584 13.1667 28.333 13.1667H45.6663C46.241 13.1667 46.7921 13.395 47.1984 13.8013C47.6047 14.2077 47.833 14.7588 47.833 15.3334V21.8334H56.4997C57.0743 21.8334 57.6254 22.0617 58.0317 22.468C58.4381 22.8743 58.6663 23.4254 58.6663 24.0001V54.3334C58.6663 54.908 58.4381 55.4591 58.0317 55.8655C57.6254 56.2718 57.0743 56.5001 56.4997 56.5001H17.4997C16.925 56.5001 16.3739 56.2718 15.9676 55.8655C15.5613 55.4591 15.333 54.908 15.333 54.3334V24.0001C15.333 23.4254 15.5613 22.8743 15.9676 22.468C16.3739 22.0617 16.925 21.8334 17.4997 21.8334H26.1663ZM19.6663 43.5001V52.1667H54.333V43.5001H19.6663ZM34.833 34.8334V39.1667H39.1663V34.8334H34.833ZM30.4997 17.5001V21.8334H43.4997V17.5001H30.4997Z" fill="#0A2647"/>
</svg>
